<svg width="91" height="94" viewBox="0 0 91 94" fill="none" xmlns="http://www.w3.org/2000/svg">
<circle cx="45.5" cy="46.4609" r="45.5" fill="#EFF1F8"/>
<path d="M22.3888 49.6915C20.7552 49.8916 19.1331 49.9917 17.6232 49.1711C16.1966 48.3475 15.4747 47.0608 15.4805 45.388C15.4891 42.3655 15.4719 39.3459 15.4862 36.3235C15.5294 26.1009 22.8144 17.3367 32.9065 15.3522C42.8633 13.3963 53.082 18.7864 56.979 28.0825C58.0748 30.6961 58.6787 33.4211 58.6644 36.272C58.65 39.2945 58.6672 42.3141 58.6586 45.3365C58.65 47.9443 56.8064 49.7715 54.1835 49.7887C53.6342 49.7916 53.0791 49.8287 52.5326 49.7801C51.9028 49.7229 51.6899 50.0175 51.6209 50.5779C51.3506 52.7225 50.7063 54.7527 49.6364 56.6428C49.1073 57.5807 48.4975 58.4614 47.7584 59.2449C47.3644 59.6653 47.2695 60.0256 47.5686 60.566C48.1898 61.6898 48.7506 62.8507 49.3086 64.0088C49.5214 64.4492 49.8176 64.7094 50.2893 64.8609C52.2019 65.4728 54.1087 66.0933 56.004 66.7539C63.5594 69.3903 67.862 74.8519 69.7026 82.4266C70.0161 83.7219 70.1628 85.0459 70.1455 86.3841C70.1283 87.6766 69.625 88.1941 68.3135 88.1941C57.8821 88.1941 47.4535 88.1941 37.0221 88.1941C26.7115 88.1941 16.4008 88.1941 6.0902 88.1941C4.39621 88.1941 3.9648 87.7766 4.00219 86.0753C4.18338 77.7742 9.78017 69.3789 18.02 66.7853C19.9786 66.1677 21.9171 65.4871 23.8728 64.8495C24.2841 64.7151 24.5832 64.5149 24.7788 64.1146C25.3827 62.8736 26.0011 61.6383 26.6424 60.4145C26.8553 60.0113 26.792 59.731 26.4929 59.3993C25.6099 58.4243 23.7693 54.8128 23.7693 54.8128C22.6936 52.9027 22.3859 49.6915 22.3859 49.6915H22.3888ZM27.7296 56.2997C30.4532 60.5546 36.2369 62.2788 40.9393 60.3973C45.3051 58.6502 47.6807 55.2674 48.509 50.738C49.159 47.1809 49.5214 43.5922 49.7774 39.9893C49.8061 39.5804 49.7112 39.386 49.2741 39.3174C48.0719 39.1343 46.8611 38.9599 45.6761 38.6883C41.4253 37.7161 37.6347 35.8202 34.3761 32.9293C33.8182 32.4346 33.2573 32.2573 32.5527 32.3975C30.9594 32.712 29.5012 33.3268 28.184 34.2876C26.8035 35.2941 25.9234 36.7238 24.8622 38.0049C24.3876 38.5768 24.2985 39.1629 24.3675 39.8549C24.5659 41.888 24.6982 43.9268 24.9283 45.9542C25.1498 47.9358 25.4259 49.9117 25.8515 51.8647C25.9666 52.3851 26.2254 53.5317 26.3347 53.832C26.8524 55.2531 27.6318 56.1481 27.7296 56.2997ZM20.7264 85.2317C21.2987 85.2317 21.8739 85.2317 22.4463 85.2317C26.1506 85.2317 29.8579 85.2317 33.5622 85.226C33.7635 85.226 34.0425 85.3375 34.1547 85.1145C34.2611 84.9029 34.0281 84.7285 33.9188 84.554C33.4155 83.7477 32.9439 82.9127 32.383 82.1464C29.274 77.8915 26.7345 73.3335 24.8967 68.3981C24.6925 67.8519 24.4394 67.8119 23.939 67.9892C22.3399 68.5496 20.7264 69.07 19.1158 69.599C16.93 70.3139 14.9513 71.3891 13.2429 72.9303C9.91247 75.9328 7.90786 79.6443 7.22624 84.0651C7.10736 84.8409 7.44674 85.2289 8.24436 85.2289C12.4031 85.2289 16.5648 85.2289 20.7235 85.2289L20.7264 85.2317ZM53.4472 85.2317C57.5111 85.2317 61.5749 85.2317 65.6388 85.2317C67.2465 85.2317 67.1631 85.3404 66.8755 83.8249C65.7222 77.697 62.5384 73.0247 56.7921 70.2968C54.7213 69.3131 52.4578 68.8098 50.3094 68.0178C49.6451 67.7747 49.4064 67.9348 49.1763 68.5582C47.9338 71.9124 46.3232 75.0892 44.4509 78.1431C43.1308 80.2963 41.5289 82.2607 40.2807 84.4597C40.1599 84.6741 39.8464 84.8772 40.0046 85.1374C40.1311 85.3432 40.4475 85.2289 40.6804 85.2289C44.937 85.2346 49.1907 85.2317 53.4472 85.2317ZM24.3186 33.6642C24.5228 33.5098 24.6033 33.4669 24.6637 33.404C26.8092 31.1364 29.4351 29.8068 32.5297 29.3493C33.8441 29.1548 34.9916 29.2435 36.0011 30.2958C37.2781 31.6283 38.834 32.6234 40.4532 33.5126C43.1912 35.0167 46.1392 35.846 49.2223 36.2577C49.7429 36.3264 50.0017 36.1634 49.9442 35.6115C49.8982 35.1854 49.8752 34.7594 49.8349 34.3333C49.3977 29.6924 47.0135 26.3554 42.7224 24.6111C39.0871 23.1328 35.2303 23.1614 31.572 24.5425C27.4822 26.0866 25.1699 29.2435 24.3215 33.6642H24.3186ZM54.1777 34.9767C54.4164 34.9767 54.658 34.9595 54.8939 34.9796C55.4691 35.0339 55.587 34.7594 55.5151 34.2475C55.1815 31.8685 54.4826 29.6152 53.2977 27.5106C49.3517 20.4992 41.5691 16.8734 33.6859 18.3089C28.9174 19.1782 25.0635 21.5973 22.1529 25.4547C20.1742 28.0797 19.0324 31.0507 18.6154 34.3019C18.5521 34.8023 18.7189 35.011 19.2337 34.9767C19.6623 34.951 20.0966 34.9452 20.5251 34.9767C21.0543 35.0167 21.1981 34.8023 21.247 34.2847C21.8107 28.2998 24.8765 24.085 30.4216 21.7088C33.7031 20.3019 37.1803 20.4735 40.6028 20.8767C47.1257 21.6459 52.639 27.7022 52.8921 34.2018C52.9151 34.7737 53.0647 35.0539 53.6715 34.9738C53.8355 34.951 54.0052 34.971 54.1748 34.971L54.1777 34.9767ZM42.13 76.0814C42.13 75.8613 41.9919 75.7526 41.8769 75.6382C40.3583 74.1227 38.8311 72.6186 37.3212 71.0917C37.0163 70.7857 36.838 70.8515 36.5734 71.1317C35.1498 72.6387 33.7175 74.137 32.2709 75.6239C32.0034 75.8984 32.0005 76.1072 32.1932 76.4274C33.6169 78.7951 35.377 80.9425 36.7546 83.3388C36.9559 83.6876 37.1803 83.6991 37.3845 83.3445C38.7794 80.9311 40.5568 78.7636 41.9775 76.3674C42.0379 76.2673 42.0868 76.1586 42.13 76.0786V76.0814ZM46.8582 66.019C46.8438 65.9332 46.8438 65.8818 46.8237 65.8417C46.2772 64.7322 45.7365 63.6199 45.1728 62.519C44.9945 62.1702 44.8248 62.439 44.6896 62.5819C42.9468 64.412 41.2125 66.2506 39.4639 68.075C39.1245 68.4295 39.1504 68.6812 39.5012 69.0214C40.7868 70.2653 42.0552 71.5263 43.3034 72.8045C43.6629 73.1705 43.8211 73.1505 44.0483 72.6873C45.0434 70.6828 45.9551 68.6411 46.7 66.5308C46.7633 66.3536 46.8122 66.1677 46.8553 66.0219L46.8582 66.019ZM28.9605 62.8393C28.7908 62.8936 28.7189 63.0137 28.6557 63.1424C28.2386 63.9688 27.8274 64.8009 27.4017 65.6244C27.2694 65.8817 27.2924 66.1219 27.3816 66.3793C28.1667 68.5754 29.0986 70.7057 30.1512 72.7873C30.341 73.1648 30.482 73.1562 30.7581 72.8588C31.9574 71.5692 33.1653 70.2853 34.3934 69.0214C34.7299 68.6754 34.6752 68.461 34.356 68.1464C32.6735 66.4965 31.0083 64.8266 29.3344 63.1653C29.2194 63.0509 29.0871 62.9508 28.9577 62.8393H28.9605ZM18.463 41.8022C18.463 42.56 18.463 43.3206 18.463 44.0784C18.463 46.5718 18.8253 46.9121 21.3246 46.8349C21.7877 46.8206 21.9286 46.7148 21.8768 46.2115C21.664 44.1384 21.4138 42.0682 21.3563 39.9807C21.2987 37.8676 21.2642 37.8819 19.1129 37.9305C18.6125 37.942 18.4428 38.1107 18.4543 38.5996C18.4802 39.6662 18.463 40.7356 18.463 41.8022ZM55.6848 41.8709C55.6848 40.7557 55.6733 39.6405 55.6905 38.5253C55.6963 38.0992 55.5352 37.9191 55.1038 37.9362C54.5804 37.9563 54.0541 37.962 53.5306 37.9362C53.0589 37.9134 52.9266 38.125 52.895 38.5653C52.7426 40.81 52.6563 43.0604 52.3658 45.2965C52.1616 46.8635 52.2105 46.872 53.8297 46.8263C55.1354 46.792 55.6589 46.2887 55.6819 45.002C55.702 43.9583 55.6848 42.9146 55.6848 41.8709ZM38.9318 64.2233C38.9088 64.1661 38.8858 64.1089 38.8628 64.0546C37.4305 64.1203 36.0011 64.1375 34.5228 64.0202C35.1757 64.778 35.8889 65.4385 36.5849 66.1105C36.8121 66.3307 36.979 66.305 37.1803 66.0876C37.7584 65.4614 38.348 64.8438 38.9347 64.2233H38.9318Z" fill="#0B2265"/>
<path d="M63.0823 80.1534C63.0104 80.8139 62.7026 81.3257 62.0411 81.5402C61.3854 81.7518 60.7958 81.586 60.3845 81.0312C60.0451 80.5737 59.7921 80.0561 59.4699 79.5901C58.8056 78.6264 58.0031 77.7915 57.1087 77.028C56.2689 76.3131 56.1912 75.4181 56.824 74.7204C57.3934 74.0913 58.2649 74.0913 59.0644 74.7318C60.6117 75.9671 61.8456 77.4569 62.7688 79.2012C62.9241 79.4957 63.0535 79.8017 63.0823 80.1505V80.1534Z" fill="#0B2265"/>
<path d="M54.3477 73.0382C54.3333 73.8732 53.6632 74.5051 52.8148 74.4794C51.975 74.4565 51.3509 73.7817 51.3825 72.9381C51.4141 72.1318 52.0612 71.5256 52.878 71.5313C53.7207 71.537 54.3621 72.1947 54.3448 73.0354L54.3477 73.0382Z" fill="#0B2265"/>
<path d="M38.0063 49.5948H34.0899C32.1069 49.5948 30.4234 50.9149 29.8274 52.7406H23.5133C23.0189 52.7406 22.6591 52.4513 22.6344 52.1845L22.3268 48.96C22.2417 48.0696 21.4644 47.4208 20.5965 47.5078C19.7259 47.5949 19.0915 48.387 19.1766 49.2774L19.4842 52.5019C19.6737 54.4849 21.4067 55.9791 23.5133 55.9791H29.8274C30.4234 57.8049 32.1069 59.125 34.0899 59.125H38.0063C40.4864 59.125 42.5023 57.0633 42.5023 54.527V54.1956C42.5023 51.6592 40.4864 49.5976 38.0063 49.5976V49.5948ZM39.3384 54.5242C39.3384 55.2741 38.7424 55.8865 38.0063 55.8865H34.0899C33.3566 55.8865 32.7578 55.277 32.7578 54.5242V54.1928C32.7578 53.4428 33.3538 52.8305 34.0899 52.8305H38.0063C38.7396 52.8305 39.3384 53.44 39.3384 54.1928V54.5242Z" fill="#DE762E"/>
<path d="M66.9222 34.1466C67.9962 32.3816 69.0906 30.6281 70.1325 28.8486C70.9146 27.5141 72.0032 26.867 73.5937 26.8959C76.6259 26.9479 79.6581 26.9132 82.6903 26.9103C84.669 26.9074 85.4891 26.087 85.5066 24.1111C85.5124 23.5941 85.4862 23.0741 85.5241 22.5599C85.5766 21.8666 86.1078 21.3986 86.7673 21.4131C87.3977 21.4275 87.9289 21.8753 87.9551 22.531C87.9931 23.5132 88.0427 24.504 87.9347 25.4775C87.7012 27.6123 85.6934 29.3397 83.5075 29.3542C80.3965 29.3715 77.2855 29.3888 74.1774 29.3426C73.1997 29.3282 72.5927 29.6199 72.0995 30.4866C70.8416 32.6935 69.4933 34.8514 68.1596 37.0151C67.5001 38.0868 66.4991 38.4479 65.5039 38.0232C64.5583 37.6188 64.249 36.8244 64.2315 35.8885C64.2081 34.6983 64.2227 33.5082 64.2198 32.318C64.2198 32.032 64.2198 31.7489 64.2198 31.4629C64.2198 30.2689 63.6497 29.5429 62.5096 29.2848C60.3908 28.8053 58.8645 26.9739 58.8499 24.8131C58.8295 21.5026 58.8266 18.1892 58.8499 14.8788C58.8674 12.4118 60.8841 10.3406 63.3793 10.3261C70.0974 10.2886 76.8156 10.2857 83.5308 10.3261C85.991 10.3406 87.9522 12.4176 87.9726 14.8614C87.9785 15.6125 87.9872 16.3636 87.9697 17.1118C87.9522 17.9062 87.4473 18.4463 86.7528 18.455C86.0611 18.4637 85.5329 17.9177 85.5095 17.1349C85.4891 16.4618 85.5329 15.7887 85.4891 15.1185C85.3899 13.6164 84.5902 12.8682 83.0697 12.8653C77.7378 12.8567 72.4059 12.8624 67.074 12.8624C65.9241 12.8624 64.7743 12.8509 63.6244 12.8682C62.2294 12.8913 61.4356 13.6568 61.4269 15.0463C61.4064 18.2297 61.4064 21.4102 61.4269 24.5936C61.4327 25.9801 62.136 26.7081 63.5573 26.8959C65.8103 27.1963 66.7909 28.3113 66.7938 30.579C66.7938 31.7576 66.7938 32.9362 66.7938 34.1148C66.8376 34.1264 66.8814 34.1379 66.9222 34.1495V34.1466Z" fill="#DE762E"/>
<path d="M73.3651 24.2456C71.0802 24.2456 68.7952 24.2456 66.5103 24.2456C66.2906 24.2456 66.0654 24.2535 65.8484 24.2299C65.1261 24.1512 64.6757 23.716 64.6647 23.1051C64.6538 22.4653 65.1206 22.0117 65.8814 21.9357C66.0764 21.9173 66.2741 21.9226 66.4718 21.9226C71.0911 21.9226 75.7105 21.9226 80.3325 21.9226C81.5409 21.9226 82.1781 22.3368 82.1643 23.0998C82.1506 23.8602 81.5299 24.243 80.2996 24.243C77.9899 24.243 75.6803 24.243 73.3706 24.243L73.3651 24.2456Z" fill="#DE762E"/>
<path d="M75.7721 16.1122C77.3753 16.1122 78.9785 16.107 80.5817 16.1122C81.5653 16.1175 82.1585 16.5522 82.1643 17.2502C82.1702 17.8957 81.5918 18.4067 80.6668 18.4146C77.3547 18.441 74.0426 18.441 70.7305 18.4146C69.7967 18.4067 69.2976 17.8983 69.3328 17.1897C69.368 16.5284 69.8995 16.1228 70.8009 16.1149C72.457 16.1043 74.1131 16.1122 75.7691 16.1122H75.7721Z" fill="#DE762E"/>
<path d="M66.3614 16.1142C67.5915 16.1037 68.1833 16.4919 68.1641 17.2868C68.1477 18.0579 67.4984 18.462 66.2984 18.4329C66.0546 18.4276 65.8053 18.4039 65.5724 18.3484C64.9368 18.1952 64.6136 17.7885 64.6711 17.1547C64.7259 16.5183 65.1314 16.1855 65.7724 16.1195C65.9669 16.0984 66.1642 16.1169 66.3614 16.1169V16.1142Z" fill="#DE762E"/>
</svg>
