<svg width="185" height="34" viewBox="0 0 185 34" fill="none" xmlns="http://www.w3.org/2000/svg">
<path d="M59.5234 3.56142C60.8931 3.82698 62.1106 4.17064 63.1759 4.62365L61.5171 10.7159C60.3452 10.3566 59.2038 10.091 58.1081 9.88795C57.0124 9.68488 55.9623 9.57553 54.9578 9.57553C53.4208 9.57553 52.3859 9.80985 51.8532 10.2472C51.3206 10.7002 51.0619 11.2626 51.0619 11.9499C51.0619 12.481 51.3206 12.9184 51.8532 13.2309C52.3859 13.5745 53.0403 13.9026 53.8164 14.215C54.5926 14.5274 55.4448 14.8711 56.358 15.2147C57.2711 15.574 58.1233 16.0114 58.8995 16.5894C59.6908 17.1518 60.33 17.8547 60.8627 18.6982C61.3801 19.5262 61.654 20.604 61.654 21.9006C61.654 23.5095 61.3497 24.9623 60.7561 26.2432C60.1626 27.5398 59.3256 28.6332 58.2451 29.5393C57.1645 30.4609 55.8862 31.1639 54.41 31.6481C52.9338 32.1324 51.3206 32.3823 49.6009 32.3823C47.9877 32.3823 46.4506 32.1948 45.0201 31.8512C43.5895 31.5075 42.2655 30.992 41.1089 30.3516L42.859 24.1031C44.0309 24.7436 45.2331 25.2278 46.4658 25.5715C47.6986 25.9152 48.9921 26.087 50.3314 26.087C52.812 26.087 54.0599 25.2435 54.0599 23.5408C54.0599 22.994 53.8012 22.5254 53.2686 22.1817C52.7511 21.8225 52.0815 21.4944 51.3054 21.182C50.5292 20.8696 49.677 20.5259 48.7791 20.1666C47.8812 19.8073 47.0442 19.3387 46.2528 18.7763C45.4766 18.214 44.8222 17.511 44.2896 16.6519C43.7721 15.8083 43.5134 14.7305 43.5134 13.4183C43.5134 12.1061 43.7569 10.7627 44.2439 9.52867C44.7309 8.27898 45.4766 7.1855 46.4658 6.24824C47.4551 5.31097 48.703 4.54555 50.1792 3.98319C51.6706 3.42083 53.4055 3.13965 55.384 3.13965C56.7536 3.13965 58.1233 3.26461 59.5082 3.51455" fill="#0B2265"/>
<path d="M87.829 24.3358C87.0985 26.179 86.1398 27.6943 84.9527 28.8815C83.7657 30.0687 82.3503 30.9591 80.6915 31.5371C79.0327 32.115 77.0999 32.4118 74.8628 32.4118C71.1342 32.4118 68.3796 31.5371 66.6143 29.8187C64.8641 28.0848 63.9814 25.4136 63.9814 21.8051C63.9814 21.1803 63.9967 20.5398 64.0423 19.8681C64.0728 19.1964 64.1641 18.5091 64.2858 17.7905C64.6206 15.3068 65.1685 13.1511 65.899 11.3234C66.6295 9.48011 67.5883 7.96487 68.7753 6.76205C69.9624 5.55923 71.3929 4.66883 73.067 4.09085C74.741 3.51287 76.6738 3.21606 78.8653 3.21606C82.6243 3.21606 85.3788 4.07522 87.129 5.77792C88.8791 7.49624 89.7466 10.105 89.7466 13.6666C89.7466 14.2914 89.7314 14.9631 89.6705 15.6504C89.6248 16.3378 89.5487 17.0407 89.4574 17.7749C89.1226 20.3055 88.59 22.4925 87.8442 24.3358M81.6046 15.4474C81.6655 14.7757 81.6959 14.1664 81.6959 13.6041C81.6959 11.9795 81.3916 10.9016 80.798 10.3393C80.2045 9.79254 79.2609 9.51135 77.9521 9.51135C77.0999 9.51135 76.3694 9.62071 75.7759 9.8394C75.1824 10.0737 74.6649 10.4799 74.2388 11.0891C73.8127 11.6827 73.4474 12.5262 73.1583 13.6041C72.8691 14.6819 72.5952 16.0722 72.3517 17.7905C72.1386 19.4464 72.0169 20.821 72.0169 21.8832C72.0169 22.7112 72.093 23.4141 72.2452 23.9608C72.3821 24.5076 72.6104 24.945 72.8996 25.273C73.2039 25.6011 73.5692 25.8354 74.041 25.9603C74.5127 26.0853 75.0606 26.1478 75.6998 26.1478C76.552 26.1478 77.2825 26.0385 77.8913 25.7885C78.5 25.5542 79.0175 25.1324 79.4588 24.5076C79.9001 23.8984 80.2654 23.0392 80.5545 21.977C80.8437 20.8991 81.1024 19.5088 81.3307 17.8061C81.4524 16.9314 81.5437 16.1503 81.6046 15.4786" fill="#0B2265"/>
<path d="M108.435 31.8697H90.4468L94.2971 3.67371H102.059L99.0605 25.4807H109.47L108.435 31.8697Z" fill="#0B2265"/>
<path d="M127.201 32.0241C125.664 32.2741 124.157 32.399 122.666 32.399C120.566 32.399 118.77 32.1647 117.278 31.6961C115.787 31.2274 114.57 30.5401 113.626 29.6497C112.682 28.7437 111.998 27.619 111.556 26.2912C111.115 24.9478 110.902 23.4013 110.902 21.6517C110.902 21.0581 110.932 20.4333 110.978 19.7928C111.024 19.1524 111.1 18.4807 111.191 17.7777C111.861 12.9664 113.428 9.3267 115.939 6.8742C118.435 4.40607 122.103 3.18762 126.912 3.18762C128.236 3.18762 129.56 3.29697 130.914 3.51566C132.254 3.71874 133.456 4.03116 134.506 4.43731L132.969 10.6701C132.041 10.3108 130.99 10.014 129.834 9.81096C128.677 9.60789 127.566 9.51416 126.516 9.51416C125.268 9.51416 124.233 9.63913 123.396 9.88906C122.575 10.139 121.874 10.5764 121.342 11.2012C120.809 11.8261 120.383 12.6696 120.063 13.7162C119.744 14.7628 119.47 16.0906 119.257 17.6996C119.029 19.2461 118.922 20.5426 118.922 21.5736C118.922 22.4484 118.998 23.1826 119.181 23.7762C119.348 24.3542 119.622 24.8228 119.972 25.1665C120.322 25.4945 120.764 25.7445 121.327 25.8694C121.874 26.01 122.544 26.0725 123.32 26.0725C123.594 26.0725 123.868 26.0569 124.142 26.0413C124.416 26.01 124.72 25.9788 125.01 25.9319L126.288 16.5905H133.091L131.112 30.9931C130.047 31.4149 128.738 31.7586 127.186 32.0085" fill="#0B2265"/>
<path d="M143.178 26.7711L141.2 31.8791H133.058L145.994 3.68311H155.232L160.649 31.8791H152.036L151.488 26.7711H143.178ZM149.388 10.6345C149.296 10.8532 149.22 11.0875 149.114 11.3531L145.416 20.9288H150.833L149.799 11.4468C149.753 11.1031 149.723 10.8063 149.707 10.5876C149.707 10.3689 149.692 10.1346 149.692 9.90029H149.616C149.54 10.1502 149.464 10.4002 149.372 10.6189" fill="#0B2265"/>
<path d="M180.555 3.56117C181.94 3.82673 183.158 4.1704 184.208 4.62341L182.549 10.7156C181.377 10.3563 180.251 10.0908 179.14 9.88771C178.044 9.68463 176.994 9.57529 175.99 9.57529C174.453 9.57529 173.418 9.8096 172.885 10.247C172.368 10.7 172.094 11.2624 172.094 11.9497C172.094 12.4808 172.352 12.9182 172.885 13.2306C173.418 13.5743 174.072 13.9023 174.848 14.2147C175.625 14.5272 176.477 14.8708 177.39 15.2145C178.303 15.5738 179.155 16.0112 179.931 16.5892C180.708 17.1515 181.362 17.8545 181.879 18.698C182.412 19.5259 182.671 20.6038 182.671 21.9003C182.671 23.5093 182.366 24.962 181.773 26.243C181.179 27.5395 180.342 28.633 179.262 29.539C178.181 30.4607 176.918 31.1636 175.427 31.6479C173.95 32.1321 172.337 32.3821 170.602 32.3821C168.989 32.3821 167.467 32.1946 166.037 31.8509C164.591 31.5073 163.297 30.9918 162.11 30.3513L163.876 24.1029C165.048 24.7433 166.25 25.2276 167.483 25.5713C168.715 25.9149 170.009 26.0868 171.348 26.0868C173.829 26.0868 175.077 25.2432 175.077 23.5405C175.077 22.9938 174.818 22.5252 174.285 22.1815C173.753 21.8222 173.113 21.4942 172.322 21.1817C171.546 20.8693 170.694 20.5257 169.796 20.1664C168.883 19.8071 168.061 19.3385 167.269 18.7761C166.493 18.2137 165.839 17.5108 165.306 16.6516C164.789 15.8081 164.515 14.7302 164.515 13.4181C164.515 12.1059 164.758 10.7625 165.245 9.52842C165.732 8.27874 166.478 7.18526 167.467 6.24799C168.457 5.31073 169.704 4.5453 171.181 3.98294C172.672 3.42059 174.407 3.1394 176.385 3.1394C177.755 3.1394 179.125 3.26437 180.51 3.51431" fill="#0B2265"/>
<path d="M17.2644 19.9622C13.3066 29.819 7.76774 29.5995 3.51416 27.2581C8.74699 34.3763 18.5598 36.1219 25.8531 31.0838C32.9016 26.2129 35.0641 16.7428 31.188 9.20653C30.8921 8.64209 29.6069 7.21008 27.5158 7.21008C24.7821 7.23099 21.2425 10.0427 17.2542 19.9622" fill="#FF5100"/>
<path d="M17.2644 19.9622C13.3066 29.819 7.76774 29.5995 3.51416 27.2581C8.74699 34.3763 18.5598 36.1219 25.8531 31.0838C32.9016 26.2129 35.0641 16.7428 31.188 9.20653C30.8921 8.64209 29.6069 7.21008 27.5158 7.21008C24.7821 7.23099 21.2425 10.0427 17.2542 19.9622" fill="url(#paint0_linear_616_2062)" fill-opacity="0.7"/>
<path d="M17.2644 19.9622C13.3066 29.819 7.76774 29.5995 3.51416 27.2581C8.74699 34.3763 18.5598 36.1219 25.8531 31.0838C32.9016 26.2129 35.0641 16.7428 31.188 9.20653C30.8921 8.64209 29.6069 7.21008 27.5158 7.21008C24.7821 7.23099 21.2425 10.0427 17.2542 19.9622" fill="url(#paint1_linear_616_2062)" fill-opacity="0.7"/>
<path d="M17.1304 6.19377C17.1304 6.19377 7.98065 11.1378 7.29722 11.5664C-4.32109 18.7264 3.34965 27.0676 3.34965 27.0676C1.56457 24.9771 2.70702 22.3953 4.45129 20.9946C6.7974 19.1236 11.2754 17.1272 13.3053 16.1969C17.9669 14.075 20.7618 9.9567 20.1702 3.78967C19.3235 4.74086 18.3035 5.55616 17.1304 6.19377Z" fill="url(#paint2_linear_616_2062)"/>
<path d="M0.280547 13.787C-0.015266 15.3758 -0.0662682 16.9541 0.076538 18.4906C2.87146 7.99623 13.1229 1.27522 23.7518 3.31347C25.088 3.57478 26.3631 3.95108 27.5769 4.44235C25.394 2.38319 22.6297 0.898922 19.488 0.292672C18.4679 0.0940733 17.4479 0 16.438 0C8.67551 0.0104526 1.75961 5.67575 0.280547 13.787Z" fill="url(#paint3_linear_616_2062)"/>
<defs>
<linearGradient id="paint0_linear_616_2062" x1="28.726" y1="1.00624" x2="13.8464" y2="37.2578" gradientUnits="userSpaceOnUse">
<stop stop-color="#EAD436" stop-opacity="0"/>
<stop offset="0.447966" stop-color="#EBD935"/>
<stop offset="1" stop-color="#EAD436" stop-opacity="0"/>
</linearGradient>
<linearGradient id="paint1_linear_616_2062" x1="14.4576" y1="36.6012" x2="16.5219" y2="22.902" gradientUnits="userSpaceOnUse">
<stop stop-color="#FF60B3"/>
<stop offset="1" stop-color="#E51B84" stop-opacity="0"/>
</linearGradient>
<linearGradient id="paint2_linear_616_2062" x1="2.35265" y1="26.4144" x2="20.7914" y2="4.26798" gradientUnits="userSpaceOnUse">
<stop stop-color="#2C6AA9"/>
<stop offset="0.324667" stop-color="#1D91C9"/>
<stop offset="0.692421" stop-color="#73AF4E"/>
<stop offset="1" stop-color="#BBC235"/>
</linearGradient>
<linearGradient id="paint3_linear_616_2062" x1="0.582563" y1="16.6378" x2="27.7772" y2="4.24023" gradientUnits="userSpaceOnUse">
<stop stop-color="#FD5170"/>
<stop offset="0.723266" stop-color="#ECBF36"/>
<stop offset="1" stop-color="#EDAE2E"/>
</linearGradient>
</defs>
</svg>
