<svg width="91" height="91" viewBox="0 0 91 91" fill="none" xmlns="http://www.w3.org/2000/svg">
<circle cx="45.5" cy="45.5" r="45.5" fill="#EFF1F8"/>
<g clip-path="url(#clip0_573_4593)">
<path d="M48.9455 38.1047C48.6699 38.447 48.4342 38.814 48.1311 39.1162C46.8328 40.396 45.1458 40.3682 43.8537 39.0761C43.1943 38.4162 42.7422 38.5477 42.4973 39.4708C41.8022 42.0704 41.1072 44.667 40.4091 47.2666C40.1366 48.2781 39.6099 48.7992 38.7955 48.8701C37.9045 48.9472 37.3809 48.6142 36.891 47.6459C36.4991 46.8688 36.1011 46.0948 35.7306 45.3053C35.556 44.9322 35.3662 44.8798 35.0294 45.1141C34.3191 45.6106 33.5812 46.0732 32.8677 46.5604C32.1268 47.0661 31.3736 47.208 30.5928 46.6776C29.9161 46.2181 29.7232 45.5088 29.9957 44.4727C30.9571 40.8308 31.9278 37.1919 32.8953 33.5531C33.1709 32.52 33.177 32.52 32.1696 32.2579C30.1733 31.7367 29.1629 30.1486 29.9284 28.2397C30.6724 26.3926 30.3356 25.1683 28.8169 23.8978C27.041 22.4145 27.185 20.6321 28.9118 19.0439C30.0345 18.0119 30.3907 16.765 29.9804 15.3033C29.8151 14.7143 29.5732 14.1253 29.662 13.4993C29.8457 12.1856 30.5469 11.2759 31.842 10.909C32.5524 10.7085 33.275 10.5512 33.9976 10.4001C34.4722 10.3014 34.7477 10.0763 34.8488 9.56443C35.0019 8.78732 35.2039 8.01638 35.4336 7.25468C35.9235 5.62954 37.3717 4.8 39.0098 5.21015C39.7508 5.39517 40.4764 5.63262 41.2021 5.87316C41.591 6.00267 41.8879 5.92558 42.1666 5.63571C42.7146 5.06212 43.2627 4.49163 43.8292 3.93655C45.1641 2.63211 47.087 2.59203 48.1984 4.08149C49.3925 5.67888 50.6387 6.16611 52.5003 5.32733C54.4385 4.45462 56.4317 5.6943 56.6399 7.8221C56.8175 9.63535 57.6871 10.4094 59.4477 10.7301C61.9737 11.1927 62.6902 12.6544 62.0043 15.1214C61.2695 17.7703 60.9204 16.7712 63.2811 19.158C64.7447 20.6413 64.7538 22.3682 63.278 23.8084C62.8953 24.1846 62.5371 24.5978 62.1053 24.9093C61.5083 25.3379 61.3981 25.8251 61.6369 26.5005C61.8757 27.1758 62.0594 27.8728 62.2186 28.5728C62.5922 30.2103 61.7257 31.6627 60.1151 32.1376C59.9192 32.1962 59.7232 32.2548 59.5211 32.2826C58.9669 32.3597 58.8322 32.6033 58.9914 33.1769C59.9712 36.7602 60.9112 40.3528 61.8604 43.9454C61.9461 44.2661 62.0349 44.5899 62.0778 44.9198C62.1758 45.663 61.9859 46.3014 61.3215 46.7177C60.6755 47.1217 60.011 47.1093 59.3742 46.7053C58.5995 46.215 57.8249 45.7185 57.0808 45.1789C56.6185 44.8427 56.3981 44.9414 56.1776 45.4379C55.8224 46.2335 55.4121 47.0014 55.0263 47.7816C54.6467 48.5494 54.0527 48.9442 53.1831 48.8609C52.4177 48.79 51.8512 48.2842 51.6124 47.3992C50.853 44.5806 50.109 41.7559 49.3527 38.9342C49.2884 38.6968 49.2915 38.4254 48.9302 38.0955L48.9455 38.1047ZM53.4587 35.2214C53.9026 35.3108 54.0557 35.0364 54.1445 34.6786C54.3313 33.9324 54.5181 33.1892 54.7079 32.4429C55.0325 31.1755 55.8469 30.423 57.1084 30.1393C57.7545 29.9944 58.3913 29.8032 59.0404 29.6891C59.6222 29.5873 59.7385 29.3036 59.5701 28.7671C59.3282 27.9838 59.1231 27.1913 58.9149 26.3987C58.6393 25.341 58.9088 24.4189 59.662 23.648C60.1611 23.1361 60.6601 22.618 61.2082 22.1616C61.7961 21.6713 61.7471 21.2797 61.196 20.8017C60.6755 20.3515 60.2039 19.8426 59.7171 19.3523C58.869 18.5012 58.575 17.499 58.918 16.3271C59.1262 15.6148 59.3068 14.8901 59.5548 14.1932C59.7447 13.6597 59.5548 13.4346 59.0619 13.3143C58.2688 13.1231 57.4758 12.935 56.6951 12.7099C55.6081 12.3922 54.8977 11.683 54.6222 10.5605C54.4477 9.83888 54.2578 9.12037 54.1139 8.3926C54.0037 7.8406 53.7557 7.66174 53.2015 7.84677C52.4789 8.0873 51.7349 8.27541 51 8.47894C49.809 8.81199 48.7894 8.50978 47.9412 7.61549C47.4666 7.11591 46.9921 6.61326 46.545 6.08902C46.1654 5.64187 45.85 5.58637 45.4336 6.06127C44.9131 6.65643 44.3497 7.21768 43.7771 7.76351C42.9657 8.5437 42.0135 8.85516 40.902 8.52828C40.1947 8.31858 39.4722 8.14281 38.7832 7.88686C38.1801 7.66174 37.9412 7.89611 37.8188 8.45119C37.6565 9.17587 37.4758 9.89747 37.2891 10.616C36.9859 11.7817 36.2603 12.5403 35.0968 12.8456C34.3589 13.0398 33.6179 13.2187 32.8708 13.3821C32.3932 13.487 32.2462 13.709 32.4054 14.2024C32.6565 14.9826 32.8432 15.7813 33.0637 16.5708C33.3852 17.7241 33.0515 18.6986 32.237 19.5188C31.7165 20.0431 31.1654 20.5426 30.6173 21.0391C30.2254 21.3938 30.2315 21.7145 30.6173 22.0691C31.1776 22.5903 31.7349 23.1176 32.2737 23.6634C33.1556 24.5608 33.4342 25.6216 33.0576 26.8428C32.8831 27.4071 32.7208 27.9714 32.5493 28.5358C32.2462 29.5195 32.2676 29.5596 33.2903 29.8217C33.8812 29.9728 34.4722 30.1301 35.0662 30.2719C36.3583 30.5803 37.1543 31.3821 37.4544 32.6865C37.6044 33.3341 37.782 33.9786 37.8922 34.6355C37.9963 35.2676 38.3209 35.3632 38.8659 35.1936C39.5946 34.9654 40.3325 34.7681 41.0674 34.5645C42.1696 34.2593 43.1341 34.5152 43.9394 35.3324C44.4599 35.8597 44.9865 36.384 45.4673 36.9452C45.8928 37.4417 46.2358 37.4109 46.643 36.9329C47.0747 36.4271 47.5554 35.9677 48.0025 35.4773C48.9547 34.4381 50.1029 34.2068 51.4134 34.6046C52.0962 34.8112 52.7759 35.0179 53.4587 35.2245V35.2214ZM51.7257 37.5404C52.3595 39.918 52.9688 42.1969 53.6332 44.6886C53.9761 44.0194 54.218 43.5507 54.4599 43.0819C55.158 41.7189 56.1623 41.4475 57.4697 42.274C57.9137 42.5546 58.3546 42.8445 58.9669 43.2423C58.2229 40.4391 57.5309 37.8333 56.8206 35.1474C55.6816 37.9104 55.1488 38.1633 51.7287 37.5404H51.7257ZM38.3515 44.6701C38.4862 44.2229 38.5658 43.9855 38.6301 43.7449C39.0986 41.9872 39.5671 40.2294 40.0325 38.4717C40.1029 38.2096 40.3203 37.8981 40.0815 37.6853C39.8824 37.5065 39.5977 37.7316 39.3589 37.7963C37.3778 38.3237 35.9235 37.488 35.403 35.5113C35.3754 35.4002 35.3938 35.2522 35.1672 35.2399C34.4783 37.8395 33.7863 40.4453 33.0423 43.2454C33.7557 42.7859 34.2731 42.4189 34.8212 42.1044C35.8439 41.5184 36.8512 41.8052 37.4176 42.8352C37.7116 43.3687 37.9718 43.9238 38.3485 44.6701H38.3515Z" fill="#FF7900"/>
<path d="M58.5536 81.9579C56.4899 81.9579 54.4292 81.9641 52.3656 81.9579C50.9969 81.9517 50.2498 81.1993 50.2376 79.8085C50.2253 78.3715 50.2284 76.9344 50.2376 75.5005C50.2468 74.2084 50.7428 73.5392 51.992 73.274C52.4819 73.1692 52.5248 72.9132 52.5217 72.5216C52.5125 71.2387 52.537 69.9559 52.5156 68.673C52.439 63.8469 54.1414 59.7116 57.2676 56.1159C59.6099 53.4238 62.3656 51.1757 64.9651 48.758C65.2559 48.4867 65.6295 48.2246 66.0061 48.1382C66.7226 47.9778 66.9491 47.5122 67.1298 46.8769C67.8922 44.1632 68.6975 41.4649 69.4874 38.7605C69.7201 37.9648 70.0539 37.2186 70.5927 36.5833C71.8573 35.0939 73.9669 35.1463 75.1518 36.7036C75.8163 37.5794 76.0857 38.5909 75.9785 39.6702C75.5009 44.4099 74.9987 49.1466 74.5058 53.8833C74.3251 55.6163 74.2149 57.3587 73.9455 59.0763C73.477 62.0244 71.9828 64.4267 69.8273 66.4435C68.4096 67.7695 67.0196 69.1263 65.6203 70.4709C65.2284 70.8471 64.9191 71.2726 64.8395 71.8431C64.7354 72.6048 64.7262 73.1969 65.7183 73.4344C66.5634 73.6348 66.9491 74.4088 66.9645 75.2723C66.992 76.8358 67.0043 78.4023 66.9614 79.9658C66.9277 81.2024 66.1224 81.9487 64.8977 81.9548C62.785 81.9672 60.6693 81.9548 58.5566 81.9579H58.5536ZM58.5689 73.2339C59.4599 73.2339 60.3539 73.1969 61.2419 73.2463C61.9308 73.2863 62.191 73.0705 62.1635 72.3427C62.1084 70.9365 62.6381 69.7369 63.6362 68.7563C64.8212 67.5937 65.9632 66.3756 67.2247 65.2994C70.0539 62.8879 71.4991 59.8812 71.6705 56.1313C71.7961 53.3744 72.2186 50.6299 72.5003 47.8761C72.7789 45.15 73.0545 42.424 73.3025 39.6948C73.3484 39.1891 73.5138 38.4274 72.8616 38.3133C72.2676 38.2085 72.1757 38.9609 72.0379 39.4266C71.1684 42.3469 70.3233 45.2765 69.469 48.203C69.3803 48.5052 69.368 48.7642 69.5548 49.0726C70.5468 50.6946 70.3264 52.3784 69.0251 53.7815C67.6687 55.2432 66.3398 56.7296 64.9987 58.2036C64.2088 59.0733 63.425 59.9521 62.6197 60.8094C62.2492 61.2041 61.7869 61.3953 61.2357 61.1856C60.7367 60.9975 60.4458 60.6275 60.3539 60.1156C60.2498 59.542 60.5927 59.1411 60.9387 58.7587C62.1359 57.4296 63.3423 56.1067 64.5395 54.7745C65.4458 53.7661 66.3521 52.7608 67.237 51.7339C67.4911 51.4378 67.6901 51.0092 67.3594 50.6916C67.0073 50.3554 66.6981 50.7378 66.4501 50.9691C64.2761 52.9828 62.0012 54.8886 59.9651 57.0472C58.1923 58.9252 56.7409 61.0099 55.9142 63.4954C54.913 66.5051 55.0875 69.6167 55.0814 72.7158C55.0814 73.2 55.3845 73.2339 55.7458 73.2308C56.6889 73.2247 57.6319 73.2308 58.5719 73.2308L58.5689 73.2339ZM58.5627 79.383C60.2406 79.383 61.9155 79.3675 63.5934 79.3922C64.1139 79.3984 64.3343 79.2226 64.3129 78.6829C64.2853 77.9675 64.2976 77.249 64.3068 76.5336C64.3129 76.1172 64.1384 75.923 63.7189 75.923C60.3141 75.9261 56.9093 75.9291 53.5046 75.923C53.03 75.923 52.8891 76.1697 52.8983 76.5983C52.9075 77.2644 52.9259 77.9305 52.8922 78.5935C52.8616 79.1918 53.0851 79.4045 53.6852 79.3922C55.3111 79.3614 56.9369 79.3799 58.5627 79.3799V79.383Z" fill="#0B2265"/>
<path d="M33.4005 81.9586C31.3643 81.9586 29.3251 81.9617 27.289 81.9586C25.7887 81.9556 25.0447 81.2124 25.0294 79.689C25.0171 78.2797 25.0141 76.8673 25.0294 75.458C25.0416 74.2924 25.5131 73.617 26.6123 73.3056C27.0869 73.173 27.1788 72.9355 27.2063 72.4945C27.2737 71.4491 26.7073 70.7769 26.0214 70.117C24.3466 68.5042 22.6534 66.9098 21.0459 65.2323C18.9975 63.0921 18.1127 60.4278 17.8279 57.5136C17.4544 53.665 17.041 49.8227 16.646 45.9741C16.4317 43.8864 16.2112 41.7956 16.0153 39.7048C15.9112 38.5916 16.1806 37.5616 16.8695 36.6704C18.0453 35.1563 20.1243 35.1038 21.3796 36.5563C21.943 37.207 22.2798 37.9779 22.5217 38.7982C23.3331 41.5767 24.1537 44.3521 24.9528 47.1336C25.0906 47.6116 25.2713 47.9601 25.8193 48.0588C26.2449 48.1359 26.6307 48.3826 26.9492 48.6786C29.8457 51.3707 32.9504 53.8532 35.4335 56.9739C38.1065 60.3352 39.5089 64.1499 39.4813 68.4795C39.4721 69.8394 39.4905 71.1994 39.4752 72.5562C39.4691 72.9818 39.5885 73.1791 40.0477 73.2747C41.2296 73.5214 41.7501 74.2184 41.7593 75.4611C41.7716 76.8982 41.7746 78.3352 41.7593 79.7692C41.744 81.2 40.9877 81.9494 39.5793 81.9555C37.5156 81.9617 35.455 81.9555 33.3913 81.9555L33.4005 81.9586ZM33.3882 73.2316C34.3037 73.2316 35.2223 73.2038 36.1378 73.2408C36.7256 73.2655 36.9583 73.0743 36.94 72.4545C36.9002 71.2487 36.94 70.0429 36.9277 68.8372C36.8879 64.7605 35.6264 61.1463 32.9473 58.0502C30.8989 55.6818 28.4984 53.6866 26.2235 51.5557C25.9265 51.2751 25.6172 51.0068 25.3019 50.7509C25.1212 50.6059 24.9008 50.4764 24.6742 50.6399C24.4231 50.8218 24.4752 51.0963 24.5517 51.343C24.6528 51.6729 24.9008 51.9042 25.1243 52.1509C27.142 54.3928 29.169 56.6286 31.1776 58.8797C31.8389 59.6229 31.8297 60.363 31.2174 60.9181C30.6387 61.4423 29.9008 61.3806 29.267 60.6806C27.0992 58.3 24.9283 55.9193 22.8003 53.4985C21.5787 52.1047 21.496 50.646 22.4635 49.0486C22.6717 48.7033 22.5983 48.4226 22.5064 48.105C22.0594 46.5539 21.6154 45.0027 21.1592 43.4547C20.7183 41.956 20.2774 40.4573 19.8059 38.9678C19.7048 38.6471 19.567 38.1907 19.1139 38.2925C18.7005 38.385 18.7005 38.826 18.6883 39.1868C18.6822 39.418 18.6822 39.6493 18.7036 39.8775C18.8659 41.5613 19.0343 43.2419 19.2027 44.9226C19.5946 48.7711 20.0631 52.6104 20.3601 56.4651C20.6081 59.6815 21.6644 62.4322 24.0924 64.6155C25.4029 65.7935 26.6123 67.0825 27.9106 68.276C29.1843 69.4478 29.9467 70.8231 29.8579 72.5994C29.8365 73.062 30.0294 73.2439 30.4886 73.2347C31.4562 73.2161 32.4237 73.2285 33.3913 73.2316H33.3882ZM33.4127 75.9206C31.7624 75.9206 30.109 75.9329 28.4586 75.9114C27.9106 75.9052 27.6656 76.0871 27.6932 76.6638C27.7238 77.3546 27.7146 78.0453 27.6962 78.7361C27.6871 79.1832 27.8493 79.3837 28.3178 79.3837C31.6981 79.3744 35.0753 79.3713 38.4556 79.3837C38.9669 79.3837 39.1231 79.1555 39.1108 78.6868C39.0955 78.0731 39.0741 77.4563 39.1169 76.8457C39.1659 76.1581 38.9332 75.8867 38.2137 75.9052C36.6154 75.9484 35.0141 75.9175 33.4127 75.9206Z" fill="#0B2265"/>
<path d="M45.9753 11.4844C51.5632 11.4813 55.9906 15.9127 55.9906 21.5159C55.9906 27.0913 51.5142 31.6091 45.9906 31.606C40.4701 31.6029 36.009 27.0821 36.0151 21.4912C36.0182 15.9312 40.4426 11.4875 45.9753 11.4844ZM53.336 21.522C53.336 17.399 50.0415 14.0562 45.9876 14.0686C41.9306 14.0809 38.6575 17.4268 38.6698 21.5529C38.679 25.6851 41.8786 28.9077 45.9784 28.9169C50.118 28.9262 53.333 25.6944 53.333 21.522H53.336Z" fill="#FF7900"/>
<path d="M55.0689 76.3596C55.764 76.3688 56.4039 77.0041 56.4039 77.6794C56.4039 78.3887 55.7303 79.0239 54.9985 79.0085C54.279 78.9931 53.6819 78.3948 53.6758 77.6887C53.6727 76.9609 54.3127 76.3472 55.0689 76.3596Z" fill="#0B2265"/>
<path d="M38.3301 77.6538C38.3423 78.3569 37.7544 78.9706 37.0349 79.0014C36.3062 79.0354 35.6203 78.4124 35.602 77.7001C35.5836 77.0217 36.2082 76.3802 36.9063 76.3525C37.6595 76.3247 38.3148 76.923 38.327 77.6538H38.3301Z" fill="#0B2265"/>
<path d="M45.4091 25.5155C44.9805 25.5001 44.6253 25.3182 44.3252 25.016C43.0638 23.7485 41.7931 22.4873 40.55 21.2044C39.8488 20.4797 39.8151 19.6564 40.403 19.1044C40.9848 18.5586 41.6982 18.6387 42.4208 19.3511C43.2383 20.159 44.065 20.9608 44.8457 21.8058C45.2499 22.2467 45.5163 22.2652 45.9419 21.8181C47.1391 20.5568 48.3791 19.3418 49.6039 18.1083C49.9774 17.7321 50.3877 17.4422 50.9541 17.544C52.0044 17.7352 52.3748 18.9718 51.6063 19.8229C50.9572 20.5445 50.2499 21.2106 49.5671 21.9014C48.5781 22.9005 47.5861 23.8966 46.5971 24.8926C46.2664 25.2257 45.9113 25.5094 45.4122 25.5125L45.4091 25.5155Z" fill="#FF7900"/>
</g>
<defs>
<clipPath id="clip0_573_4593">
<rect width="60" height="79" fill="white" transform="translate(16 2.96094)"/>
</clipPath>
</defs>
</svg>
