<?xml version="1.0" encoding="iso-8859-1"?>
<!-- Generator: Adobe Illustrator 28.0.0, SVG Export Plug-In . SVG Version: 6.00 Build 0)  -->
<svg version="1.1" id="Capa_1" xmlns="http://www.w3.org/2000/svg" xmlns:xlink="http://www.w3.org/1999/xlink" x="0px" y="0px"
	 viewBox="0 0 245.39 86.27" style="enable-background:new 0 0 245.39 86.27;" xml:space="preserve">
<g>
	<path style="fill:#1434CB;" d="M158.32,5c-16.71,0-31.65,8.66-31.65,24.67c0,18.35,26.49,19.62,26.49,28.84
		c0,3.88-4.45,7.36-12.05,7.36c-10.78,0-18.85-4.86-18.85-4.86l-3.45,16.15c0,0,9.29,4.1,21.61,4.1c18.27,0,32.65-9.09,32.65-25.37
		c0-19.4-26.6-20.63-26.6-29.18c0-3.04,3.65-6.37,11.23-6.37c8.55,0,15.53,3.53,15.53,3.53l3.38-15.6C176.61,8.28,169.02,5,158.32,5
		L158.32,5L158.32,5L158.32,5z M5.41,6.18L5,8.53c0,0,7.03,1.29,13.36,3.85c8.15,2.94,8.73,4.66,10.11,9.98l14.96,57.69H63.5
		L94.4,6.18H74.39L54.53,56.41l-8.1-42.58c-0.74-4.87-4.51-7.65-9.11-7.65L5.41,6.18L5.41,6.18L5.41,6.18z M102.45,6.18l-15.7,73.87
		h19.09l15.64-73.87H102.45L102.45,6.18z M208.9,6.18c-4.6,0-7.04,2.46-8.83,6.77l-27.96,67.11h20.01l3.87-11.18h24.38l2.35,11.18
		h17.66L224.98,6.18H208.9L208.9,6.18z M211.5,26.14l5.93,27.72h-15.89L211.5,26.14L211.5,26.14L211.5,26.14L211.5,26.14z"/>
</g>
</svg>
