<svg width="91" height="92" viewBox="0 0 91 92" fill="none" xmlns="http://www.w3.org/2000/svg">
<circle cx="45.5" cy="46.4609" r="45.5" fill="#EFF1F8"/>
<g clip-path="url(#clip0_573_4594)">
<path d="M42.9239 81.9965C38.8677 81.9965 34.8116 81.9997 30.7554 81.9965C28.4472 81.9965 26.8924 80.4479 26.8827 78.1604C26.8827 77.4213 26.8537 76.679 26.8924 75.94C26.9181 75.4217 26.6992 75.1689 26.2357 74.9641C23.0422 73.566 20.9305 71.2016 19.91 67.8774C19.6396 66.9944 19.485 66.0922 19.4883 65.1643C19.4915 62.3808 19.4786 59.5973 19.4979 56.8139C19.5011 56.2955 19.3434 55.998 18.8734 55.7229C16.3689 54.2671 16.3817 50.7382 18.9024 49.292C19.3917 49.0105 19.5011 48.6873 19.4979 48.185C19.4818 45.4783 19.4303 42.7716 19.5044 40.0649C19.6331 35.4386 21.9187 32.1528 26.065 30.1531C26.7121 29.8396 26.9053 29.5036 26.8988 28.8286C26.8731 23.7479 26.8827 18.6672 26.8859 13.5833C26.8859 11.7085 27.8324 10.7774 29.7317 10.7742C30.4238 10.7742 31.1192 10.7838 31.8113 10.7742C32.806 10.7551 33.5561 11.1838 34.0357 12.0252C34.2611 12.4187 34.5154 12.5883 34.979 12.6555C38.8838 13.209 42.808 13.1866 46.7354 13.0586C48.1937 13.0106 49.6423 12.7675 51.0974 12.6363C51.4547 12.6043 51.6382 12.4411 51.796 12.1436C52.2982 11.1934 53.1062 10.7519 54.1878 10.7742C54.9314 10.7902 55.6783 10.7742 56.4219 10.7774C58.0444 10.7934 59.0423 11.7917 59.0456 13.4266C59.052 18.5328 59.0617 23.6391 59.0327 28.7454C59.0295 29.4812 59.2387 29.8428 59.9341 30.1819C64.0514 32.1815 66.2984 35.4673 66.4271 40.0585C66.5044 42.762 66.4561 45.4719 66.4304 48.1786C66.4271 48.7289 66.5945 49.0393 67.0903 49.3272C69.5465 50.7606 69.5369 54.3055 67.0678 55.7229C66.5559 56.0172 66.4271 56.3499 66.4336 56.8842C66.4529 59.5653 66.498 62.2465 66.4304 64.9276C66.3145 69.5539 64.045 72.8493 59.9051 74.865C59.2355 75.1913 58.978 75.5336 59.0359 76.2439C59.0906 76.9286 59.0552 77.6229 59.0456 78.3107C59.0198 80.4063 57.4392 81.9901 55.3274 81.9965C51.194 82.0093 47.0606 81.9997 42.9271 81.9997L42.9239 81.9965ZM42.9175 48.7801C49.6166 48.7801 56.3157 48.7737 63.0116 48.7897C63.6168 48.7897 63.8808 48.6553 63.8711 47.9867C63.8357 45.5359 63.8776 43.0852 63.8518 40.6344C63.8164 37.6206 62.6993 35.125 60.1948 33.3237C58.5691 32.1559 56.7149 31.7336 54.7512 31.7336C47.3342 31.7272 39.9172 31.7336 32.5002 31.7304C31.5248 31.7304 30.5558 31.7592 29.5804 31.852C25.8816 32.1975 22.5336 35.5089 22.1956 39.1723C21.9316 42.0517 22.157 44.9376 22.0507 47.8171C22.0218 48.6105 22.2825 48.7993 23.0519 48.7961C29.6737 48.7673 36.2956 48.7801 42.9175 48.7801ZM43.0462 56.2508C36.3471 56.2508 29.6512 56.2572 22.9521 56.238C22.305 56.238 22.0443 56.3819 22.0539 57.0858C22.0926 59.5366 22.0443 61.9873 22.0765 64.4381C22.1151 67.4551 23.2579 69.9411 25.7689 71.7295C27.401 72.8909 29.2553 73.2972 31.219 73.3004C38.636 73.3068 46.0529 73.3004 53.4699 73.3036C54.4196 73.3036 55.3628 73.2749 56.3125 73.1853C60.1015 72.8301 63.4236 69.5027 63.7423 65.7434C63.9806 62.9119 63.8067 60.0805 63.8582 57.249C63.8776 56.254 63.8582 56.2508 62.8345 56.2508C56.2384 56.2508 49.6423 56.2508 43.0462 56.2508ZM34.3931 22.2122C34.3931 24.0774 34.3898 25.9395 34.3931 27.8047C34.3963 29.3149 34.2353 29.1613 35.7483 29.1645C37.2227 29.1688 37.9642 28.4414 37.9728 26.9825C37.9825 25.2452 38.9482 24.2406 40.6801 24.279C41.4431 24.295 41.7296 24.103 41.6877 23.3032C41.6234 22.0426 41.6749 22.0394 40.4097 21.9178C39.6951 21.8506 39.2218 21.3547 39.209 20.6668C39.1961 19.9726 39.6564 19.3935 40.3582 19.3807C42.103 19.3455 43.851 19.3455 45.5958 19.3839C46.259 19.3999 46.7 19.9662 46.7064 20.6285C46.7129 21.4283 46.1785 21.889 45.2353 21.9306C44.9198 21.9434 44.453 21.761 44.3307 22.1354C44.1375 22.7401 44.1279 23.4247 44.3242 24.0198C44.4788 24.4901 45.0486 24.2406 45.4316 24.2566C46.9092 24.3142 47.9169 25.3124 47.9426 26.7969C47.9523 27.3088 47.9748 27.8207 47.9362 28.3294C47.8911 28.9373 48.0778 29.2317 48.7474 29.1805C49.3848 29.1325 50.0351 29.1293 50.6725 29.1805C51.3614 29.2349 51.5449 28.9725 51.5417 28.3071C51.5159 24.2982 51.5288 20.2893 51.5288 16.2772C51.5288 15.3046 51.4419 15.2342 50.46 15.359C48.345 15.6246 46.2268 15.7781 44.0925 15.7973C41.163 15.8229 38.2432 15.7493 35.3363 15.3526C34.4671 15.2342 34.3866 15.327 34.3866 16.2389C34.3866 18.2321 34.3866 20.2221 34.3866 22.2154L34.3931 22.2122ZM42.9818 51.3461C35.8707 51.3461 28.7627 51.3461 21.6515 51.3461C21.3683 51.3461 21.085 51.3301 20.8049 51.3684C20.1482 51.4612 19.6685 51.8132 19.6589 52.4978C19.6492 53.1857 20.116 53.5504 20.7727 53.656C21.0496 53.7008 21.3361 53.6848 21.6161 53.6848C35.8353 53.6848 50.0544 53.6848 64.2735 53.6848C64.4795 53.6848 64.6856 53.6912 64.8884 53.6784C65.7157 53.6336 66.2694 53.1761 66.2823 52.533C66.2952 51.8868 65.7447 51.4036 64.9238 51.3525C64.6695 51.3365 64.4119 51.3461 64.1544 51.3461C57.0947 51.3461 50.0383 51.3461 42.9786 51.3461H42.9818ZM42.9625 75.8664C38.9868 75.8664 35.0112 75.86 31.0355 75.8696C29.2231 75.876 29.4806 75.6232 29.4677 77.4693C29.4581 79.085 29.8186 79.4273 31.4668 79.4273C38.9031 79.4273 46.3427 79.4273 53.779 79.4273C56.364 79.4273 56.4509 79.309 56.4831 76.7718C56.4928 75.9976 56.2095 75.8472 55.5012 75.8504C51.3195 75.8792 47.141 75.8632 42.9593 75.8632L42.9625 75.8664ZM31.8113 21.2171C31.8113 19.0479 31.8177 16.8787 31.8113 14.7095C31.8081 13.2058 31.9819 13.3498 30.4624 13.3466C29.4645 13.3434 29.4613 13.3466 29.4613 14.3672C29.4613 18.808 29.4548 23.2456 29.4613 27.6864C29.4613 29.3469 29.2456 29.1165 30.9228 29.1805C31.6568 29.2093 31.8338 28.9405 31.8209 28.2559C31.7855 25.9075 31.8081 23.5623 31.8081 21.2139L31.8113 21.2171ZM56.4638 21.2523C56.4638 19.0831 56.4702 16.9139 56.4638 14.7447C56.4573 13.1866 56.6408 13.3978 55.0763 13.3274C54.2683 13.289 54.0945 13.5769 54.0977 14.332C54.1299 18.7728 54.1073 23.2104 54.117 27.6512C54.1202 29.3565 53.8788 29.1229 55.6171 29.1805C56.3157 29.2029 56.4831 28.9469 56.4767 28.2943C56.4445 25.9459 56.4638 23.6007 56.4638 21.2523ZM42.9432 29.1677C43.2265 29.1677 43.5066 29.1709 43.7899 29.1677C45.5765 29.1325 45.3447 29.4844 45.3769 27.504C45.3834 27.0177 45.2192 26.8097 44.7138 26.8257C43.8703 26.8513 43.0237 26.8193 42.1771 26.8353C40.3486 26.8673 40.5771 26.4898 40.5514 28.5374C40.5449 28.9885 40.7059 29.1933 41.1759 29.1741C41.765 29.1517 42.3541 29.1677 42.9432 29.1709V29.1677Z" fill="#0B2265"/>
<path d="M73.2873 13.2919C73.2873 13.2919 73.2969 13.2919 73.3001 13.2919C73.3001 12.1881 73.2905 11.0811 73.3066 9.97733C73.3098 9.67659 73.2068 9.55501 72.9203 9.47183C71.0306 8.92793 69.1796 8.26245 67.3704 7.49459C65.6063 6.74272 63.8744 5.92367 62.2197 4.95745C61.8721 4.75589 61.5952 4.71109 61.2604 4.95745C61.0254 5.13022 60.7518 5.2518 60.491 5.39257C57.3201 7.11066 54.0012 8.48001 50.5309 9.47823C50.2347 9.56461 50.1478 9.70219 50.1574 9.99333C50.1768 10.598 50.1574 11.2059 50.1639 11.8106C50.1896 13.5895 50.0995 15.3684 50.2283 17.144C50.3764 19.1309 50.8431 21.0409 51.6769 22.8518C53.4571 26.7263 56.2964 29.5994 60.124 31.4806C61.7014 32.2549 61.7014 32.1909 63.2949 31.5126C63.3497 31.4902 63.4012 31.4614 63.4527 31.4358C65.7222 30.3128 67.6569 28.7643 69.2762 26.8319C71.8386 23.77 73.1553 20.2283 73.2776 16.2546C73.3098 15.2692 73.2808 14.2806 73.2808 13.2919H73.2873Z" fill="#EFF1F7"/>
<path d="M73.9953 13.1322C73.9891 14.2856 74.0327 15.6862 73.9425 17.0838C73.7465 20.1171 72.8819 22.9462 71.2552 25.5312C69.5415 28.2552 67.2431 30.3763 64.4439 31.9625C63.8902 32.2748 63.3024 32.5222 62.7146 32.7634C61.8313 33.122 60.9822 33.0509 60.1144 32.6984C58.015 31.845 56.2049 30.568 54.5814 29.0159C52.3233 26.8576 50.7185 24.2882 49.8103 21.3044C49.3344 19.7429 49.0856 18.1444 49.0358 16.5118C48.9674 14.2917 49.0234 12.0717 49.0016 9.85162C48.9954 9.23322 49.1385 9.05079 49.7356 8.88382C53.6359 7.79544 57.3401 6.25253 60.8298 4.20872C61.3088 3.92734 61.6944 3.93353 62.1703 4.20872C65.6662 6.24016 69.3736 7.78307 73.2675 8.88073C73.8492 9.04461 73.9922 9.22704 73.9953 9.82689C73.9953 10.8472 73.9953 11.8676 73.9953 13.1322ZM72.4402 13.729C72.4402 13.729 72.4496 13.729 72.4527 13.729C72.4527 12.6808 72.4433 11.6357 72.4589 10.5875C72.462 10.3031 72.3656 10.1856 72.0919 10.1083C70.3004 9.59189 68.5493 8.96422 66.8356 8.2345C65.1654 7.52334 63.5263 6.74416 61.9557 5.82893C61.626 5.63722 61.3616 5.59703 61.0444 5.82893C60.8205 5.9928 60.5623 6.10721 60.3166 6.24016C57.3121 7.86965 54.1708 9.1652 50.8833 10.1113C50.6034 10.1917 50.5194 10.3216 50.5288 10.5999C50.5474 11.175 50.5288 11.747 50.535 12.3221C50.5599 14.0073 50.4728 15.6924 50.5972 17.3776C50.7371 19.2606 51.1819 21.0694 51.9719 22.7855C53.6576 26.4557 56.348 29.1797 59.9745 30.9607C61.4674 31.6935 61.4705 31.6348 62.9758 30.9916C63.0256 30.97 63.0754 30.9453 63.1282 30.9174C65.2774 29.8507 67.1124 28.3851 68.6427 26.5546C71.0686 23.6543 72.3158 20.2995 72.434 16.5334C72.462 15.5997 72.4371 14.6628 72.4371 13.7259L72.4402 13.729Z" fill="#FF7900" stroke="#FF7900" stroke-miterlimit="10"/>
<path d="M66.9966 14.6669C66.9966 14.4159 66.9235 14.2588 66.745 14.1237C66.4772 13.9169 66.131 13.972 65.8361 14.2698C63.9994 16.1393 62.1654 18.0115 60.3287 19.881C59.9284 20.2891 59.647 20.2891 59.2521 19.8865C58.5488 19.1723 57.8509 18.4554 57.1449 17.744C56.8392 17.4352 56.4605 17.4104 56.1954 17.6724C55.9222 17.9398 55.9358 18.3479 56.2387 18.6595C57.2477 19.6935 58.2594 20.7247 59.2737 21.7505C59.6011 22.0841 59.9716 22.0813 60.3017 21.7532C60.6154 21.4416 60.9211 21.1218 61.2322 20.8075C63.0554 18.949 64.8785 17.0878 66.7044 15.2321C66.8667 15.0667 67.0155 14.9012 66.9993 14.6696L66.9966 14.6669Z" fill="#FF7900" stroke="#FF7900" stroke-miterlimit="10"/>
</g>
<defs>
<clipPath id="clip0_573_4594">
<rect width="58" height="79" fill="white" transform="translate(17 3)"/>
</clipPath>
</defs>
</svg>
