<?xml version="1.0" encoding="iso-8859-1"?>
<!-- Generator: Adobe Illustrator 28.0.0, SVG Export Plug-In . SVG Version: 6.00 Build 0)  -->
<svg version="1.1" id="Capa_1" xmlns="http://www.w3.org/2000/svg" xmlns:xlink="http://www.w3.org/1999/xlink" x="0px" y="0px"
	 viewBox="0 0 108.1 70.9" style="enable-background:new 0 0 108.1 70.9;" xml:space="preserve">
<g>
	<polygon style="fill-rule:evenodd;clip-rule:evenodd;fill:#FF5F00;" points="40.79,59.39 67.31,59.39 67.31,11.51 40.79,11.51 
		40.79,59.39 	"/>
	<path style="fill-rule:evenodd;clip-rule:evenodd;fill:#EB001B;" d="M42.47,35.45c0-9.71,4.53-18.37,11.58-23.94
		C48.89,7.43,42.39,5,35.31,5C18.57,5,5,18.63,5,35.45C5,52.27,18.57,65.9,35.31,65.9c7.07,0,13.58-2.43,18.73-6.51
		C47,53.82,42.47,45.17,42.47,35.45L42.47,35.45z"/>
	<path style="fill-rule:evenodd;clip-rule:evenodd;fill:#F79E1B;" d="M102.15,54.32v-1.18h-0.31l-0.35,0.81l-0.35-0.81h-0.31v1.18
		h0.22v-0.89l0.33,0.77h0.22l0.33-0.77v0.89H102.15L102.15,54.32z M100.2,54.32v-0.98h0.39v-0.2h-1v0.2h0.39v0.98H100.2L100.2,54.32
		z M103.1,35.45c0,16.82-13.57,30.45-30.31,30.45c-7.07,0-13.58-2.43-18.74-6.51c7.05-5.57,11.58-14.23,11.58-23.94
		c0-9.71-4.53-18.37-11.58-23.94C59.2,7.43,65.71,5,72.78,5C89.53,5,103.1,18.63,103.1,35.45L103.1,35.45L103.1,35.45z"/>
</g>
</svg>
