<?xml version="1.0" encoding="iso-8859-1"?>
<!-- Generator: Adobe Illustrator 21.0.0, SVG Export Plug-In . SVG Version: 6.00 Build 0)  -->
<svg version="1.1" id="Capa_1" xmlns="http://www.w3.org/2000/svg" xmlns:xlink="http://www.w3.org/1999/xlink" x="0px" y="0px"
	 viewBox="0 0 86.9 86.61" style="enable-background:new 0 0 86.9 86.61;" xml:space="preserve">
<g>
	<path style="fill-rule:evenodd;clip-rule:evenodd;fill:#742384;" d="M6.2,0h74.5c3.41,0,6.2,2.79,6.2,6.2v74.21
		c0,3.41-2.79,6.2-6.2,6.2H6.2c-3.41,0-6.2-2.79-6.2-6.2V6.2C0,2.79,2.79,0,6.2,0L6.2,0z"/>
	<path style="fill:#FFFFFF;" d="M66.56,53.92c-5.31,0.09-11.34,0.65-16.91,1.33c0.62-2.18,1.24-4.32,1.24-4.32s0.64,1.33,2.44,1.2
		c2.55-0.19,5.66-2.61,7.17-7.03c1.6-4.7,1.46-10.04-1.81-10.49c-2.64-0.36-3.89,1.9-4.08,2.35c0,0,0.56-2.06-1.11-1.7
		c-1.6,0.34-1.9,1.04-2.3,2.28c-0.07,0.22-1.42,5.1-2.84,10.25c-0.02,0.03-0.04,0.07-0.05,0.12c-0.35,1.16-1.04,1.55-1.54,1.58
		c-1.62,0.1,1.86-10.27,2.12-11.06c0.35-1.04,0.56-1.82-0.62-2.26c-0.8-0.29-1.89-0.19-2.21,0.64c-0.13,0.35-0.23,0.6-0.23,0.6
		s-0.91-1.31-2.92-1.13c-2.01,0.18-4.55,2.55-6.23,6.72c-1.68,4.17-2.41,10.15,1.57,10.75c2.02,0.3,3.72-0.82,4.61-2.67
		c0,0-0.15,1.24,1.18,1.85c0.52,0.24,1.82,0.15,3.05-0.53c-0.32,1.17-0.63,2.29-0.9,3.28c-8.6,1.16-15.37,2.45-15.37,2.45
		c0-0.01,4.71-15.49,5.78-18.9c0.89-2.85-0.79-2.23-2.02-1.88c-1.32,0.37-1.94,1.45-2.61,3.41c-2.89,8.57-5.16,11.24-6.81,10.66
		c-1.51-0.53,3.24-9.63,2.1-10.83c-0.99-1.04-3.03-0.99-3.41-0.37c-0.39,0.61,0.19,1.17-0.06,2.04c-0.25,0.87-2.15,5.57-2.35,6.63
		c-0.2,1.05-1.85,6.89,2.52,6.64c2.58-0.15,4.35-2.05,4.54-2.58c-0.81,2.27-1.96,5.93-1.96,5.93s-5.29,1.29-9.5,5.57
		c-3.35,3.4-5.71,10.73-0.71,11.9c7.77,1.82,11.44-9.71,13.33-14.04c6.3-1.36,11.11-2.27,15.55-2.94c-0.07,0.25-0.11,0.42-0.13,0.49
		c-0.4,1.8-0.31,2.53,1.14,2.35c1.56-0.19,1.76-0.97,2.27-2.85c0.03-0.13,0.08-0.29,0.13-0.47c5.27-0.69,10.44-1.12,17.55-1.7
		c2.21-0.18,2.19-0.54,2.4-1.82C68.81,53.93,67.08,53.92,66.56,53.92L66.56,53.92z M52.99,43.98c1.06-3.38,2.04-4.73,2.96-5.11
		c2.19-0.91,2.61,1.76,0.92,5.82c-1.96,4.69-4.24,4.59-5.12,3.66C51.75,48.35,51.87,47.54,52.99,43.98L52.99,43.98z M43.21,46.02
		c-0.94,2.2-1.82,3.75-3.03,3.76c-1.74,0.01-1.69-2.52-0.46-5.71c1.04-2.68,2.93-4.37,3.96-4.56C44.7,39.31,45.89,39.73,43.21,46.02
		L43.21,46.02z M20.25,71.66c-4.13,3.58-3.09-1.32-1.55-3.44c2.92-4.02,6.52-5.04,6.52-5.04C23.38,68.38,21.1,70.92,20.25,71.66
		L20.25,71.66z"/>
	<path style="fill:#FFFFFF;" d="M72.05,40.95c1.56-1.76,2.27-5.5-0.35-6.87c-3.17-1.67-7.3,0.88-9.01,6.36
		c-1.52,4.87-2.08,10.86,3.06,10.64c2.54-0.11,4.72-1.88,5.52-3.2c0.38-0.64,0.54-1.65,0.47-2.09c-0.19-1.25-0.98-1.44-2.32,0.21
		c-0.33,0.36-2.97,2.65-4.27,1.29c-0.93-0.98-0.15-2.9-0.11-2.91C66.74,44.26,69.7,43.59,72.05,40.95L72.05,40.95z M68.26,36.7
		c1.42-1.29,2.78,0.25,1.14,2.48c-1.66,2.24-3.6,2.18-3.62,2.26C65.98,40.55,66.71,38.11,68.26,36.7L68.26,36.7z"/>
	<path style="fill:#10CBB4;" d="M44.04,21.61c-0.31-0.19-0.77-0.29-1.39-0.29H40.8v2.48h1.9c1.2,0,1.8-0.42,1.8-1.26
		C44.5,22.11,44.35,21.8,44.04,21.61L44.04,21.61z"/>
	<path style="fill:#10CBB4;" d="M45.02,10.06c-5.57,0.25-10.11,4.59-10.46,10c-0.23,3.66,1.44,6.95,4.14,9.04
		c0.28,0.21,0.44,0.54,0.44,0.88v2.36c0,0.18,0.1,0.35,0.27,0.43l0.07,0.03c0.16,0.08,0.35,0.07,0.49-0.03l2.08-1.46
		c0.27-0.19,0.62-0.26,0.94-0.18c0.82,0.19,1.67,0.29,2.54,0.29c6.07,0,11-4.78,11-10.69C56.54,14.67,51.33,9.78,45.02,10.06
		L45.02,10.06z M45.92,23.95c-0.25,0.38-0.59,0.66-1.01,0.84c-0.27,0.11-0.57,0.18-0.92,0.23c-0.35,0.04-0.75,0.07-1.21,0.07h-2.67
		c-0.39,0-0.66-0.08-0.83-0.25c-0.16-0.17-0.25-0.44-0.25-0.8v-6.39c0-0.37,0.08-0.64,0.25-0.81c0.17-0.16,0.44-0.25,0.82-0.25h2.83
		c0.42,0,0.78,0.02,1.09,0.08c0.31,0.05,0.58,0.15,0.82,0.29c0.21,0.12,0.39,0.27,0.55,0.46c0.16,0.18,0.28,0.39,0.36,0.61
		c0.08,0.22,0.12,0.46,0.12,0.7c0,0.85-0.44,1.47-1.31,1.87c1.15,0.36,1.72,1.05,1.72,2.07C46.3,23.14,46.17,23.57,45.92,23.95
		L45.92,23.95z M52.14,24.29c-0.22,0.31-0.54,0.55-0.97,0.71c-0.43,0.16-0.95,0.24-1.56,0.24c-0.58,0-1.09-0.09-1.5-0.26
		c-0.42-0.17-0.73-0.39-0.92-0.65c-0.2-0.26-0.3-0.52-0.3-0.79c0-0.17,0.06-0.32,0.19-0.45c0.13-0.12,0.29-0.19,0.48-0.19
		c0.17,0,0.3,0.04,0.39,0.12c0.09,0.08,0.18,0.2,0.26,0.34c0.17,0.28,0.37,0.49,0.6,0.63c0.23,0.14,0.55,0.21,0.95,0.21
		c0.33,0,0.59-0.07,0.8-0.21c0.21-0.14,0.31-0.3,0.31-0.48c0-0.28-0.11-0.48-0.33-0.61c-0.22-0.13-0.57-0.25-1.07-0.36
		c-0.56-0.13-1.02-0.28-1.37-0.43c-0.35-0.15-0.63-0.35-0.84-0.59c-0.21-0.24-0.32-0.54-0.32-0.9c0-0.32,0.1-0.62,0.29-0.9
		c0.2-0.28,0.48-0.51,0.86-0.68c0.38-0.17,0.84-0.25,1.37-0.25c0.42,0,0.8,0.04,1.14,0.13c0.34,0.09,0.62,0.2,0.84,0.34
		c0.23,0.14,0.4,0.3,0.51,0.47c0.12,0.17,0.18,0.34,0.18,0.51c0,0.18-0.06,0.33-0.19,0.45c-0.12,0.12-0.3,0.17-0.53,0.17
		c-0.17,0-0.31-0.05-0.43-0.14c-0.12-0.09-0.25-0.23-0.4-0.42c-0.12-0.15-0.27-0.28-0.44-0.37c-0.17-0.09-0.39-0.14-0.68-0.14
		c-0.29,0-0.54,0.06-0.73,0.18c-0.2,0.12-0.29,0.27-0.29,0.46c0,0.17,0.07,0.3,0.21,0.41c0.14,0.11,0.34,0.19,0.58,0.26
		c0.24,0.07,0.58,0.15,1,0.25c0.5,0.12,0.92,0.26,1.24,0.43c0.32,0.17,0.56,0.36,0.73,0.59c0.16,0.23,0.25,0.48,0.25,0.77
		C52.47,23.6,52.36,23.98,52.14,24.29L52.14,24.29z"/>
	<path style="fill:#10CBB4;" d="M43.45,19.96c0.24-0.08,0.42-0.24,0.55-0.46c0.1-0.16,0.15-0.34,0.15-0.54
		c0-0.43-0.16-0.71-0.47-0.85c-0.31-0.14-0.79-0.21-1.44-0.21H40.8v2.2h1.62C42.87,20.08,43.21,20.04,43.45,19.96L43.45,19.96z"/>
</g>
</svg>
